<svg xmlns="http://www.w3.org/2000/svg" width="2560" height="1100" viewBox="0 0 2560 1100" preserveAspectRatio="xMidYMid slice">
  <defs>
    <linearGradient id="wash" x1="0" y1="0" x2="1" y2="1">
      <stop offset="0" stop-color="#f1fffb"/>
      <stop offset=".5" stop-color="#fbfffd"/>
      <stop offset="1" stop-color="#eef8ff"/>
    </linearGradient>
    <radialGradient id="glow" cx="24%" cy="64%" r="42%">
      <stop offset="0" stop-color="#dcfaef"/>
      <stop offset=".65" stop-color="#f4fffb"/>
      <stop offset="1" stop-color="#ffffff"/>
    </radialGradient>
  </defs>
  <rect width="2560" height="1100" fill="url(#wash)"/>
  <rect width="2560" height="1100" fill="url(#glow)" opacity=".76"/>
  <path d="M0 0 L2560 0 L2560 130 C2060 46 1680 58 1280 140 C800 240 420 220 0 116 Z" fill="#f8fcff" opacity=".82"/>
  <path d="M420 800 L432 830 L462 842 L432 854 L420 884 L408 854 L378 842 L408 830 Z" fill="#8ce6cd" opacity=".36"/>
  <path d="M520 620 L532 650 L562 662 L532 674 L520 704 L508 674 L478 662 L508 650 Z" fill="#8ce6cd" opacity=".32"/>
  <path d="M2020 230 L2030 255 L2055 265 L2030 275 L2020 300 L2010 275 L1985 265 L2010 255 Z" fill="#b9d6ff" opacity=".42"/>
  <circle cx="2320" cy="820" r="170" fill="#e7f8ff" opacity=".42"/>
</svg>
