<svg xmlns="http://www.w3.org/2000/svg" width="2560" height="1180" viewBox="0 0 2560 1180" preserveAspectRatio="xMidYMid slice">
  <defs>
    <radialGradient id="heroGlow" cx="78%" cy="45%" r="44%">
      <stop offset="0" stop-color="#dbeaff"/>
      <stop offset=".58" stop-color="#f5faff"/>
      <stop offset="1" stop-color="#ffffff"/>
    </radialGradient>
    <linearGradient id="heroWash" x1="0" y1="0" x2="1" y2="1">
      <stop offset="0" stop-color="#ffffff"/>
      <stop offset=".55" stop-color="#fbfdff"/>
      <stop offset="1" stop-color="#eef6ff"/>
    </linearGradient>
    <filter id="softBlur"><feGaussianBlur stdDeviation="30"/></filter>
  </defs>
  <rect width="2560" height="1180" fill="url(#heroWash)"/>
  <rect width="2560" height="1180" fill="url(#heroGlow)" opacity=".9"/>
  <ellipse cx="2070" cy="525" rx="560" ry="560" fill="none" stroke="#d8e9ff" stroke-width="64" opacity=".7"/>
  <ellipse cx="2070" cy="525" rx="430" ry="430" fill="none" stroke="#eaf4ff" stroke-width="46" opacity=".96"/>
  <ellipse cx="2070" cy="525" rx="304" ry="304" fill="#eef7ff" opacity=".5"/>
  <circle cx="1700" cy="270" r="180" fill="#e7f2ff" opacity=".46" filter="url(#softBlur)"/>
  <path d="M0 1014 C420 1154 810 1180 1280 1094 C1745 1008 2180 1012 2560 1116 L2560 1180 L0 1180 Z" fill="#eaf4ff"/>
  <path d="M2334 300 L2348 336 L2384 350 L2348 364 L2334 400 L2320 364 L2284 350 L2320 336 Z" fill="#7dabff" opacity=".72"/>
  <path d="M2422 522 L2432 548 L2458 558 L2432 568 L2422 594 L2412 568 L2386 558 L2412 548 Z" fill="#a1c4ff" opacity=".52"/>
</svg>
